<?xml version="1.0" encoding="UTF-8" standalone="no"?>
<!-- Created with Inkscape (http://www.inkscape.org/) -->

<svg
   xmlns:dc="http://purl.org/dc/elements/1.1/"
   xmlns:cc="http://creativecommons.org/ns#"
   xmlns:rdf="http://www.w3.org/1999/02/22-rdf-syntax-ns#"
   xmlns:svg="http://www.w3.org/2000/svg"
   xmlns="http://www.w3.org/2000/svg"
   version="1.1"
   width="24"
   height="24"
   id="svg2985">
  <defs
     id="defs2987" />
  <metadata
     id="metadata2990">
    <rdf:RDF>
      <cc:Work
         rdf:about="">
        <dc:format>image/svg+xml</dc:format>
        <dc:type
           rdf:resource="http://purl.org/dc/dcmitype/StillImage" />
        <dc:title></dc:title>
      </cc:Work>
    </rdf:RDF>
  </metadata>
  <g
     transform="translate(-1,-23)"
     id="layer1">
    <path
       d="M 13,24 C 6.924868,24 2,28.924868 2,35 2,41.075132 6.924868,46 13,46 19.075132,46 24,41.075132 24,35 24,28.924868 19.075132,24 13,24 z m -8.328125,6.09375 5.03125,0 0,1.453125 -3.5625,0 L 5.90625,33.625 C 6.075811,33.496799 6.268398,33.406709 6.5,33.328125 c 0.2315955,-0.07857 0.4917475,-0.120858 0.78125,-0.125 0.885034,-0.0124 1.563911,0.236261 2.03125,0.765625 0.471463,0.525238 0.703119,1.285469 0.703125,2.265625 -6e-6,0.885041 -0.252805,1.605286 -0.765625,2.171875 -0.512832,0.566591 -1.2762805,0.859375 -2.28125,0.859375 -0.8478205,0 -1.5533582,-0.22522 -2.140625,-0.671875 -0.5831341,-0.45079 -0.8750006,-1.09887 -0.875,-1.921875 l 1.78125,-0.07813 c -2.5e-6,0.409436 0.1204198,0.729799 0.34375,0.953125 0.2233245,0.219194 0.5142735,0.328126 0.890625,0.328125 0.4301085,1e-6 0.743118,-0.159489 0.9375,-0.453125 C 8.1047585,37.124107 8.20312,36.74215 8.203125,36.25 8.20312,35.716498 8.1015405,35.29042 7.890625,34.984375 7.6797,34.674202 7.3676085,34.51563 6.9375,34.515625 c -0.355673,5e-6 -0.6305325,0.06343 -0.8125,0.1875 -0.1778376,0.124075 -0.3120493,0.303791 -0.390625,0.53125 L 4.140625,35.125 4.671875,30.09375 z m 9.15625,0 1.328125,0 -3.3125,9.8125 -1.328125,0 3.3125,-9.8125 z m 2.875,0 5.03125,0 0,1.453125 -3.546875,0 -0.25,2.078125 c 0.169561,-0.128201 0.362148,-0.218291 0.59375,-0.296875 0.231595,-0.07857 0.491747,-0.120858 0.78125,-0.125 0.885034,-0.0124 1.563911,0.236261 2.03125,0.765625 0.471463,0.525238 0.703118,1.285469 0.703125,2.265625 -7e-6,0.885041 -0.252805,1.605286 -0.765625,2.171875 -0.512832,0.566591 -1.260655,0.859375 -2.265625,0.859375 -0.847821,0 -1.568983,-0.22522 -2.15625,-0.671875 -0.583134,-0.45079 -0.875,-1.09887 -0.875,-1.921875 l 1.796875,-0.07813 c -3e-6,0.409436 0.104795,0.729799 0.328125,0.953125 0.223324,0.219194 0.529899,0.328126 0.90625,0.328125 0.430108,1e-6 0.727493,-0.159489 0.921875,-0.453125 0.198508,-0.297768 0.312495,-0.679725 0.3125,-1.171875 -5e-6,-0.533502 -0.11721,-0.95958 -0.328125,-1.265625 -0.210925,-0.310173 -0.523017,-0.468745 -0.953125,-0.46875 -0.355673,5e-6 -0.630533,0.06343 -0.8125,0.1875 -0.177838,0.124075 -0.296425,0.303791 -0.375,0.53125 l -1.609375,-0.10937 0.53125,-5.03125 z"
       id="path3001"
       style="fill:#ffffff;fill-opacity:1" />
  </g>
</svg>
